{
  "accessors": [
    {
      "bufferView": 2,
      "componentType": 5126,
      "count": 18,
      "max": [
        55.808799743652344,
        26.17289924621582,
        161.67399597167969
      ],
      "min": [
        55.614097595214844,
        26.072299957275391,
        161.4822998046875
      ],
      "type": "VEC3"
    },
    {
      "bufferView": 2,
      "byteOffset": 216,
      "componentType": 5126,
      "count": 18,
      "max": [
        0.48798593878746033,
        -0.086297512054443359,
        -0.86856752634048462
      ],
      "min": [
        0.48771074414253235,
        -0.086401909589767456,
        -0.86871916055679321
      ],
      "type": "VEC3"
    },
    {
      "bufferView": 3,
      "componentType": 5126,
      "count": 18,
      "max": [
        0.74117171764373779,
        -0.48468950390815735,
        0.46447890996932983,
        -1
      ],
      "min": [
        0.73640614748001099,
        -0.49353781342506409,
        0.46273791790008545,
        -1
      ],
      "type": "VEC4"
    },
    {
      "bufferView": 0,
      "componentType": 5125,
      "count": 48,
      "max": [
        17
      ],
      "min": [
        0
      ],
      "type": "SCALAR"
    },
    {
      "bufferView": 2,
      "byteOffset": 432,
      "componentType": 5126,
      "count": 2715,
      "max": [
        94.833900451660156,
        40.627399444580078,
        123.41370391845703
      ],
      "min": [
        27.316699981689453,
        9.8505992889404297,
        0
      ],
      "type": "VEC3"
    },
    {
      "bufferView": 2,
      "byteOffset": 33012,
      "componentType": 5126,
      "count": 2715,
      "max": [
        0.99983102083206177,
        0.99990737438201904,
        0.99379771947860718
      ],
      "min": [
        -0.99912697076797485,
        -0.99995231628417969,
        -1
      ],
      "type": "VEC3"
    },
    {
      "bufferView": 3,
      "byteOffset": 288,
      "componentType": 5126,
      "count": 2715,
      "max": [
        0.99811923503875732,
        0.99947768449783325,
        0.98614484071731567,
        1
      ],
      "min": [
        -0.99992060661315918,
        -0.99996680021286011,
        -0.99524259567260742,
        -1
      ],
      "type": "VEC4"
    },
    {
      "bufferView": 1,
      "componentType": 5126,
      "count": 2715,
      "max": [
        0.99819999933242798,
        0.99080002307891846
      ],
      "min": [
        0.015599999576807022,
        0.0074000000022351742
      ],
      "type": "VEC2"
    },
    {
      "bufferView": 0,
      "byteOffset": 192,
      "componentType": 5125,
      "count": 14520,
      "max": [
        2714
      ],
      "min": [
        0
      ],
      "type": "SCALAR"
    },
    {
      "bufferView": 2,
      "byteOffset": 65592,
      "componentType": 5126,
      "count": 3016,
      "max": [
        93.74310302734375,
        33.422798156738281,
        162.94779968261719
      ],
      "min": [
        0,
        13.35999870300293,
        112.14330291748047
      ],
      "type": "VEC3"
    },
    {
      "bufferView": 2,
      "byteOffset": 101784,
      "componentType": 5126,
      "count": 3016,
      "max": [
        0.99980467557907104,
        0.99995338916778564,
        0.99949079751968384
      ],
      "min": [
        -0.99929487705230713,
        -0.99935328960418701,
        -0.99961024522781372
      ],
      "type": "VEC3"
    },
    {
      "bufferView": 3,
      "byteOffset": 43728,
      "componentType": 5126,
      "count": 3016,
      "max": [
        0.99992257356643677,
        0.99928611516952515,
        0.99917525053024292,
        1
      ],
      "min": [
        -0.99800795316696167,
        -0.99949014186859131,
        -0.99872696399688721,
        -1
      ],
      "type": "VEC4"
    },
    {
      "bufferView": 1,
      "byteOffset": 21720,
      "componentType": 5126,
      "count": 3016,
      "max": [
        0.56230002641677856,
        0.76670002937316895
      ],
      "min": [
        0.31700000166893005,
        0.5853000283241272
      ],
      "type": "VEC2"
    },
    {
      "bufferView": 0,
      "byteOffset": 58272,
      "componentType": 5125,
      "count": 15792,
      "max": [
        3015
      ],
      "min": [
        0
      ],
      "type": "SCALAR"
    },
    {
      "bufferView": 2,
      "byteOffset": 137976,
      "componentType": 5126,
      "count": 3056,
      "max": [
        77.005699157714844,
        50.609699249267578,
        187.43080139160156
      ],
      "min": [
        47.939697265625,
        20.200899124145508,
        156.18989562988281
      ],
      "type": "VEC3"
    },
    {
      "bufferView": 2,
      "byteOffset": 174648,
      "componentType": 5126,
      "count": 3056,
      "max": [
        0.99968785047531128,
        0.99939608573913574,
        0.99998986721038818
      ],
      "min": [
        -0.99999713897705078,
        -0.99973219633102417,
        -0.99881666898727417
      ],
      "type": "VEC3"
    },
    {
      "bufferView": 3,
      "byteOffset": 91984,
      "componentType": 5126,
      "count": 3056,
      "max": [
        0.9964107871055603,
        0.99990177154541016,
        0.99989736080169678,
        1
      ],
      "min": [
        -0.99983441829681396,
        -0.99974739551544189,
        -0.99742555618286133,
        -1
      ],
      "type": "VEC4"
    },
    {
      "bufferView": 1,
      "byteOffset": 45848,
      "componentType": 5126,
      "count": 3056,
      "max": [
        0.99559998512268066,
        0.96189999580383301
      ],
      "min": [
        0.018899999558925629,
        0.56089997291564941
      ],
      "type": "VEC2"
    },
    {
      "bufferView": 0,
      "byteOffset": 121440,
      "componentType": 5125,
      "count": 17052,
      "max": [
        3055
      ],
      "min": [
        0
      ],
      "type": "SCALAR"
    },
    {
      "bufferView": 2,
      "byteOffset": 211320,
      "componentType": 5126,
      "count": 8991,
      "max": [
        104.93309783935547,
        67.99169921875,
        174.84579467773438
      ],
      "min": [
        19.033897399902344,
        0,
        79.331695556640625
      ],
      "type": "VEC3"
    },
    {
      "bufferView": 2,
      "byteOffset": 319212,
      "componentType": 5126,
      "count": 8991,
      "max": [
        0.99979871511459351,
        0.99984967708587646,
        0.99992942810058594
      ],
      "min": [
        -0.99997985363006592,
        -0.99988758563995361,
        -0.99978715181350708
      ],
      "type": "VEC3"
    },
    {
      "bufferView": 3,
      "byteOffset": 140880,
      "componentType": 5126,
      "count": 8991,
      "max": [
        0.99961858987808228,
        0.99966412782669067,
        0.99993348121643066,
        1
      ],
      "min": [
        -0.99999654293060303,
        -0.9999580979347229,
        -0.99962049722671509,
        -1
      ],
      "type": "VEC4"
    },
    {
      "bufferView": 1,
      "byteOffset": 70296,
      "componentType": 5126,
      "count": 8991,
      "max": [
        0.74400001764297485,
        0.97670000791549683
      ],
      "min": [
        0.011500000022351742,
        0.0059000002220273018
      ],
      "type": "VEC2"
    },
    {
      "bufferView": 0,
      "byteOffset": 189648,
      "componentType": 5125,
      "count": 50640,
      "max": [
        8990
      ],
      "min": [
        0
      ],
      "type": "SCALAR"
    }
  ],
  "asset": {
    "extras": {
      "author": "Kimchi_Lord (https://sketchfab.com/ctrsans)",
      "license": "CC-BY-NC-ND-4.0 (http://creativecommons.org/licenses/by-nc-nd/4.0/)",
      "source": "https://sketchfab.com/models/7f6592832c464477b866ad81c21b720e",
      "title": "2B"
    },
    "generator": "Sketchfab-3.18.7",
    "version": "2.0"
  },
  "bufferViews": [
    {
      "buffer": 0,
      "byteLength": 392208,
      "byteOffset": 0,
      "name": "floatBufferViews",
      "target": 34963
    },
    {
      "buffer": 0,
      "byteLength": 142224,
      "byteOffset": 392208,
      "byteStride": 8,
      "name": "floatBufferViews",
      "target": 34962
    },
    {
      "buffer": 0,
      "byteLength": 427104,
      "byteOffset": 534432,
      "byteStride": 12,
      "name": "floatBufferViews",
      "target": 34962
    },
    {
      "buffer": 0,
      "byteLength": 284736,
      "byteOffset": 961536,
      "byteStride": 16,
      "name": "floatBufferViews",
      "target": 34962
    }
  ],
  "buffers": [
    {
      "byteLength": 1246272,
      "uri": "scene.bin"
    }
  ],
  "images": [
    {
      "uri": "textures/02___Default_baseColor.png"
    },
    {
      "uri": "textures/02___Default_emissive.png"
    }
  ],
  "materials": [
    {
      "doubleSided": true,
      "emissiveFactor": [
        0,
        0,
        0
      ],
      "emissiveTexture": {
        "index": 1,
        "texCoord": 0
      },
      "name": "02___Default",
      "pbrMetallicRoughness": {
        "baseColorFactor": [
          1,
          1,
          1,
          1
        ],
        "baseColorTexture": {
          "index": 0,
          "texCoord": 0
        },
        "metallicFactor": 0,
        "roughnessFactor": 0.27877286590000006
      }
    },
    {
      "doubleSided": true,
      "emissiveFactor": [
        0,
        0,
        0
      ],
      "name": "wire_003003003",
      "pbrMetallicRoughness": {
        "baseColorFactor": [
          0.0118,
          0.0118,
          0.0118,
          1
        ],
        "metallicFactor": 0,
        "roughnessFactor": 0.59999999999999998
      }
    }
  ],
  "meshes": [
    {
      "primitives": [
        {
          "attributes": {
            "NORMAL": 1,
            "POSITION": 0,
            "TANGENT": 2
          },
          "indices": 3,
          "material": 1,
          "mode": 4
        }
      ]
    },
    {
      "primitives": [
        {
          "attributes": {
            "NORMAL": 5,
            "POSITION": 4,
            "TANGENT": 6,
            "TEXCOORD_0": 7
          },
          "indices": 8,
          "material": 0,
          "mode": 4
        }
      ]
    },
    {
      "primitives": [
        {
          "attributes": {
            "NORMAL": 10,
            "POSITION": 9,
            "TANGENT": 11,
            "TEXCOORD_0": 12
          },
          "indices": 13,
          "material": 0,
          "mode": 4
        }
      ]
    },
    {
      "primitives": [
        {
          "attributes": {
            "NORMAL": 15,
            "POSITION": 14,
            "TANGENT": 16,
            "TEXCOORD_0": 17
          },
          "indices": 18,
          "material": 0,
          "mode": 4
        }
      ]
    },
    {
      "primitives": [
        {
          "attributes": {
            "NORMAL": 20,
            "POSITION": 19,
            "TANGENT": 21,
            "TEXCOORD_0": 22
          },
          "indices": 23,
          "material": 0,
          "mode": 4
        }
      ]
    }
  ],
  "nodes": [
    {
      "children": [
        1
      ],
      "name": "RootNode (gltf orientation matrix)",
      "rotation": [
        -0.70710678118654746,
        -0,
        -0,
        0.70710678118654757
      ]
    },
    {
      "children": [
        2
      ],
      "name": "RootNode (model correction matrix)"
    },
    {
      "children": [
        3
      ],
      "matrix": [
        1,
        0,
        0,
        0,
        0,
        1,
        0,
        0,
        0,
        0,
        1,
        0,
        -66.80419921875,
        -29.863899230957031,
        -15.423399925231934,
        1
      ],
      "name": "2b.obj.cleaner.gles"
    },
    {
      "children": [
        4,
        5,
        6,
        7,
        8
      ],
      "name": ""
    },
    {
      "mesh": 0,
      "name": ""
    },
    {
      "mesh": 1,
      "name": ""
    },
    {
      "mesh": 2,
      "name": ""
    },
    {
      "mesh": 3,
      "name": ""
    },
    {
      "mesh": 4,
      "name": ""
    }
  ],
  "samplers": [
    {
      "magFilter": 9729,
      "minFilter": 9987,
      "wrapS": 10497,
      "wrapT": 10497
    }
  ],
  "scene": 0,
  "scenes": [
    {
      "name": "OSG_Scene",
      "nodes": [
        0
      ]
    }
  ],
  "textures": [
    {
      "sampler": 0,
      "source": 0
    },
    {
      "sampler": 0,
      "source": 1
    }
  ]
}

