{
  "accessors": [
    {
      "bufferView": 2,
      "componentType": 5126,
      "count": 512,
      "max": [
        12.113513946533203,
        14.096317291259766,
        -14.995843887329102
      ],
      "min": [
        -13.198293685913086,
        -11.122161865234375,
        -14.995847702026367
      ],
      "type": "VEC3"
    },
    {
      "bufferView": 2,
      "byteOffset": 6144,
      "componentType": 5126,
      "count": 512,
      "max": [
        0.00026781283668242395,
        2.7703548767021857e-05,
        -0.9999997615814209
      ],
      "min": [
        -0.00069255777634680271,
        -9.4755254394840449e-05,
        -1
      ],
      "type": "VEC3"
    },
    {
      "bufferView": 0,
      "componentType": 5125,
      "count": 1530,
      "max": [
        511
      ],
      "min": [
        0
      ],
      "type": "SCALAR"
    },
    {
      "bufferView": 2,
      "byteOffset": 12288,
      "componentType": 5126,
      "count": 37879,
      "max": [
        12.13047981262207,
        14.106632232666016,
        26.673610687255859
      ],
      "min": [
        -13.264381408691406,
        -11.179789543151855,
        -14.995847702026367
      ],
      "type": "VEC3"
    },
    {
      "bufferView": 2,
      "byteOffset": 466836,
      "componentType": 5126,
      "count": 37879,
      "max": [
        0.99998027086257935,
        0.99999785423278809,
        0.99999982118606567
      ],
      "min": [
        -0.99999773502349854,
        -0.99998342990875244,
        -0.99980664253234863
      ],
      "type": "VEC3"
    },
    {
      "bufferView": 3,
      "componentType": 5126,
      "count": 37879,
      "max": [
        0.99995756149291992,
        0.99998974800109863,
        0.99999946355819702,
        1
      ],
      "min": [
        -0.99996191263198853,
        -0.99998652935028076,
        -0.99999099969863892,
        -1
      ],
      "type": "VEC4"
    },
    {
      "bufferView": 1,
      "componentType": 5126,
      "count": 37879,
      "max": [
        0.99542897939682007,
        1.0023930072784424
      ],
      "min": [
        0,
        0
      ],
      "type": "VEC2"
    },
    {
      "bufferView": 0,
      "byteOffset": 6120,
      "componentType": 5125,
      "count": 199407,
      "max": [
        37878
      ],
      "min": [
        0
      ],
      "type": "SCALAR"
    }
  ],
  "asset": {
    "extras": {
      "author": "Thomas Flynn (https://sketchfab.com/nebulousflynn)",
      "license": "CC-BY-4.0 (http://creativecommons.org/licenses/by/4.0/)",
      "source": "https://sketchfab.com/3d-models/aphrodite-crouching-british-museum-31dcd2d0842f4153a2c45ad24e62754e",
      "title": "Aphrodite Crouching, British Museum"
    },
    "generator": "Sketchfab-5.94.0",
    "version": "2.0"
  },
  "bufferViews": [
    {
      "buffer": 0,
      "byteLength": 803748,
      "byteOffset": 0,
      "name": "floatBufferViews",
      "target": 34963
    },
    {
      "buffer": 0,
      "byteLength": 303032,
      "byteOffset": 803748,
      "byteStride": 8,
      "name": "floatBufferViews",
      "target": 34962
    },
    {
      "buffer": 0,
      "byteLength": 921384,
      "byteOffset": 1106780,
      "byteStride": 12,
      "name": "floatBufferViews",
      "target": 34962
    },
    {
      "buffer": 0,
      "byteLength": 606064,
      "byteOffset": 2028164,
      "byteStride": 16,
      "name": "floatBufferViews",
      "target": 34962
    }
  ],
  "buffers": [
    {
      "byteLength": 2634228,
      "uri": "scene.bin"
    }
  ],
  "images": [
    {
      "uri": "textures/aphrodite-2_aphrodite-2.jpg_baseColor.jpeg"
    },
    {
      "uri": "textures/aphrodite-2_aphrodite-2.jpg_metallicRoughness.png"
    }
  ],
  "materials": [
    {
      "doubleSided": true,
      "emissiveFactor": [
        0,
        0,
        0
      ],
      "name": "aphrodite-2",
      "pbrMetallicRoughness": {
        "baseColorFactor": [
          1,
          1,
          1,
          1
        ],
        "metallicFactor": 0,
        "roughnessFactor": 0.20000000000000001
      }
    },
    {
      "doubleSided": true,
      "emissiveFactor": [
        0.42999999999999999,
        0.42999999999999999,
        0.42999999999999999
      ],
      "emissiveTexture": {
        "index": 0,
        "texCoord": 0
      },
      "name": "aphrodite-2_aphrodite-2.jpg",
      "pbrMetallicRoughness": {
        "baseColorFactor": [
          1,
          1,
          1,
          1
        ],
        "baseColorTexture": {
          "index": 0,
          "texCoord": 0
        },
        "metallicFactor": 0.28999999999999998,
        "metallicRoughnessTexture": {
          "index": 1,
          "texCoord": 0
        },
        "roughnessFactor": 1
      }
    }
  ],
  "meshes": [
    {
      "primitives": [
        {
          "attributes": {
            "NORMAL": 1,
            "POSITION": 0
          },
          "indices": 2,
          "material": 0,
          "mode": 4
        }
      ]
    },
    {
      "primitives": [
        {
          "attributes": {
            "NORMAL": 4,
            "POSITION": 3,
            "TANGENT": 5,
            "TEXCOORD_0": 6
          },
          "indices": 7,
          "material": 1,
          "mode": 4
        }
      ]
    }
  ],
  "nodes": [
    {
      "children": [
        1
      ],
      "name": "RootNode (gltf orientation matrix)",
      "rotation": [
        -0.70710678118654746,
        -0,
        -0,
        0.70710678118654757
      ]
    },
    {
      "children": [
        2
      ],
      "name": "RootNode (model correction matrix)"
    },
    {
      "children": [
        3,
        4
      ],
      "name": "aphrodite-2-edit.obj.cleaner"
    },
    {
      "mesh": 0,
      "name": ""
    },
    {
      "mesh": 1,
      "name": ""
    }
  ],
  "samplers": [
    {
      "magFilter": 9729,
      "minFilter": 9987,
      "wrapS": 10497,
      "wrapT": 10497
    }
  ],
  "scene": 0,
  "scenes": [
    {
      "name": "OSG_Scene",
      "nodes": [
        0
      ]
    }
  ],
  "textures": [
    {
      "sampler": 0,
      "source": 0
    },
    {
      "sampler": 0,
      "source": 1
    }
  ]
}

