{
  "accessors": [
    {
      "bufferView": 2,
      "componentType": 5126,
      "count": 551,
      "max": [
        3.9087300300598145,
        -0.12902000546455383,
        1.4354100227355957
      ],
      "min": [
        -2.7201600074768066,
        -16.962299346923828,
        -3.4932100772857666
      ],
      "type": "VEC3"
    },
    {
      "bufferView": 2,
      "byteOffset": 6612,
      "componentType": 5126,
      "count": 551,
      "max": [
        0.45584219694137573,
        0.99816036224365234,
        0.07767874002456665
      ],
      "min": [
        -0.047492418438196182,
        -1,
        -0.037690013647079468
      ],
      "type": "VEC3"
    },
    {
      "bufferView": 1,
      "componentType": 5126,
      "count": 551,
      "max": [
        0,
        0
      ],
      "min": [
        0,
        0
      ],
      "type": "VEC2"
    },
    {
      "bufferView": 0,
      "componentType": 5125,
      "count": 2535,
      "max": [
        550
      ],
      "min": [
        0
      ],
      "type": "SCALAR"
    },
    {
      "bufferView": 2,
      "byteOffset": 13224,
      "componentType": 5126,
      "count": 4161,
      "max": [
        4.593170166015625,
        -0.12902000546455383,
        2.1171500682830811
      ],
      "min": [
        -2.7201600074768066,
        -16.962299346923828,
        -3.6633601188659668
      ],
      "type": "VEC3"
    },
    {
      "bufferView": 2,
      "byteOffset": 63156,
      "componentType": 5126,
      "count": 4161,
      "max": [
        0.99981188774108887,
        0.94950985908508301,
        0.99958765506744385
      ],
      "min": [
        -0.99990910291671753,
        -0.93585425615310669,
        -0.99950164556503296
      ],
      "type": "VEC3"
    },
    {
      "bufferView": 3,
      "componentType": 5126,
      "count": 4161,
      "max": [
        0.99615347385406494,
        0.96609091758728027,
        0.9950135350227356,
        1
      ],
      "min": [
        -0.99551838636398315,
        -0.99999988079071045,
        -0.99834626913070679,
        -1
      ],
      "type": "VEC4"
    },
    {
      "bufferView": 1,
      "byteOffset": 4408,
      "componentType": 5126,
      "count": 4161,
      "max": [
        0.73669302463531494,
        0.99781900644302368
      ],
      "min": [
        0.0047708000056445599,
        0.4198170006275177
      ],
      "type": "VEC2"
    },
    {
      "bufferView": 0,
      "byteOffset": 10140,
      "componentType": 5125,
      "count": 21351,
      "max": [
        4160
      ],
      "min": [
        0
      ],
      "type": "SCALAR"
    }
  ],
  "asset": {
    "extras": {
      "author": "The British Museum (https://sketchfab.com/britishmuseum)",
      "license": "CC-BY-NC-SA-4.0 (http://creativecommons.org/licenses/by-nc-sa/4.0/)",
      "source": "https://sketchfab.com/models/752e69d34933438d8230ac829d22300e",
      "title": "Hoa Hakananai'a"
    },
    "generator": "Sketchfab-3.20.7",
    "version": "2.0"
  },
  "bufferViews": [
    {
      "buffer": 0,
      "byteLength": 95544,
      "byteOffset": 0,
      "name": "floatBufferViews",
      "target": 34963
    },
    {
      "buffer": 0,
      "byteLength": 37696,
      "byteOffset": 95544,
      "byteStride": 8,
      "name": "floatBufferViews",
      "target": 34962
    },
    {
      "buffer": 0,
      "byteLength": 113088,
      "byteOffset": 133240,
      "byteStride": 12,
      "name": "floatBufferViews",
      "target": 34962
    },
    {
      "buffer": 0,
      "byteLength": 66576,
      "byteOffset": 246328,
      "byteStride": 16,
      "name": "floatBufferViews",
      "target": 34962
    }
  ],
  "buffers": [
    {
      "byteLength": 312904,
      "uri": "easter.bin"
    }
  ],
  "images": [
    {
      "uri": "textures/Texture_0_emissive.jpeg"
    },
    {
      "uri": "textures/Texture_0_metallicRoughness.png"
    },
    {
      "uri": "textures/Texture_0_baseColor.jpeg"
    }
  ],
  "materials": [
    {
      "doubleSided": true,
      "emissiveFactor": [
        0.5302085876,
        0.5302085876,
        0.5302085876
      ],
      "emissiveTexture": {
        "index": 0,
        "texCoord": 0
      },
      "name": "Texture_0",
      "occlusionTexture": {
        "index": 1,
        "strength": 1,
        "texCoord": 0
      },
      "pbrMetallicRoughness": {
        "baseColorFactor": [
          1,
          1,
          1,
          1
        ],
        "baseColorTexture": {
          "index": 2,
          "texCoord": 0
        },
        "metallicFactor": 0,
        "roughnessFactor": 0.58427085879999996
      }
    }
  ],
  "meshes": [
    {
      "primitives": [
        {
          "attributes": {
            "NORMAL": 1,
            "POSITION": 0,
            "TEXCOORD_0": 2
          },
          "indices": 3,
          "material": 0,
          "mode": 4
        }
      ]
    },
    {
      "primitives": [
        {
          "attributes": {
            "NORMAL": 5,
            "POSITION": 4,
            "TANGENT": 6,
            "TEXCOORD_0": 7
          },
          "indices": 8,
          "material": 0,
          "mode": 4
        }
      ]
    }
  ],
  "nodes": [
    {
      "children": [
        1
      ],
      "name": "RootNode (gltf orientation matrix)",
      "rotation": [
        -0.70710678118654746,
        -0,
        -0,
        0.70710678118654757
      ]
    },
    {
      "children": [
        2
      ],
      "matrix": [
        0.94459974765777588,
        0.32822448015213013,
        0,
        0,
        0,
        0,
        1,
        0,
        0.32822448015213013,
        -0.94459974765777588,
        0,
        0,
        0.30563458800315857,
        -9.5833187103271484,
        7.772554874420166,
        1
      ],
      "name": "RootNode (model correction matrix)"
    },
    {
      "children": [
        3,
        4
      ],
      "name": "sculpt.obj.cleaner.materialmerger.gles"
    },
    {
      "mesh": 0,
      "name": ""
    },
    {
      "mesh": 1,
      "name": ""
    }
  ],
  "samplers": [
    {
      "magFilter": 9729,
      "minFilter": 9987,
      "wrapS": 10497,
      "wrapT": 10497
    }
  ],
  "scene": 0,
  "scenes": [
    {
      "name": "OSG_Scene",
      "nodes": [
        0
      ]
    }
  ],
  "textures": [
    {
      "sampler": 0,
      "source": 0
    },
    {
      "sampler": 0,
      "source": 1
    },
    {
      "sampler": 0,
      "source": 2
    }
  ]
}

