{"asset":{"generator":"3D Builder","version":"2.0"},"scene":0,"scenes":[{"nodes":[0]}],"nodes":[{"mesh":0,"matrix":[0.99999994039535522,0,0,0,0,-1.1920928244535389E-7,-0.99999982118606567,0,0,0.99999982118606567,-1.1920928244535389E-7,0,0,0,0,1]}],"meshes":[{"primitives":[{"attributes":{"POSITION":0},"mode":4,"indices":1}]}],"accessors":[{"bufferView":0,"byteOffset":0,"count":500120,"componentType":5126,"type":"VEC3","min":[0.026971502229571342,0.018260600045323372,0],"max":[0.17302951216697693,0.18173663318157196,0.21935802698135376]},{"bufferView":1,"byteOffset":0,"count":3005382,"componentType":5125,"type":"SCALAR"}],"bufferViews":[{"buffer":0,"byteOffset":0,"byteLength":6001440,"byteStride":12,"target":34962},{"buffer":0,"byteOffset":6001440,"byteLength":12021528,"target":34963}],"buffers":[{"byteLength":18022968,"uri":"full_sculpture.bin"}]}