{
  "accessors": [
    {
      "bufferView": 1,
      "componentType": 5126,
      "count": 859,
      "max": [
        26.75200080871582,
        11.347999572753906,
        60.787998199462891
      ],
      "min": [
        -15.539999961853027,
        -11.350000381469727,
        -0.0020000000949949026
      ],
      "type": "VEC3"
    },
    {
      "bufferView": 1,
      "byteOffset": 10308,
      "componentType": 5126,
      "count": 859,
      "max": [
        0.99991297721862793,
        0.99992811679840088,
        1
      ],
      "min": [
        -0.99993956089019775,
        -0.99988234043121338,
        -1
      ],
      "type": "VEC3"
    },
    {
      "bufferView": 0,
      "componentType": 5125,
      "count": 2106,
      "max": [
        858
      ],
      "min": [
        0
      ],
      "type": "SCALAR"
    }
  ],
  "asset": {
    "extras": {
      "author": "Microsoft (https://sketchfab.com/microsoft)",
      "license": "CC-BY-4.0 (http://creativecommons.org/licenses/by/4.0/)",
      "source": "https://sketchfab.com/models/37e3760bfde44beeb39e6fd69b690637",
      "title": "Bronco"
    },
    "generator": "Sketchfab-3.29.4",
    "version": "2.0"
  },
  "bufferViews": [
    {
      "buffer": 0,
      "byteLength": 8424,
      "byteOffset": 0,
      "name": "floatBufferViews",
      "target": 34963
    },
    {
      "buffer": 0,
      "byteLength": 20616,
      "byteOffset": 8424,
      "byteStride": 12,
      "name": "floatBufferViews",
      "target": 34962
    }
  ],
  "buffers": [
    {
      "byteLength": 29040,
      "uri": "scene.bin"
    }
  ],
  "materials": [
    {
      "doubleSided": true,
      "emissiveFactor": [
        0,
        0,
        0
      ],
      "name": "wire_143225087",
      "pbrMetallicRoughness": {
        "baseColorFactor": [
          1,
          0.98996368810000002,
          0.98996368810000002,
          1
        ],
        "metallicFactor": 0,
        "roughnessFactor": 0.59999999999999998
      }
    }
  ],
  "meshes": [
    {
      "primitives": [
        {
          "attributes": {
            "NORMAL": 1,
            "POSITION": 0
          },
          "indices": 2,
          "material": 0,
          "mode": 4
        }
      ]
    }
  ],
  "nodes": [
    {
      "children": [
        1
      ],
      "name": "RootNode (gltf orientation matrix)",
      "rotation": [
        -0.70710678118654746,
        -0,
        -0,
        0.70710678118654757
      ]
    },
    {
      "children": [
        2
      ],
      "name": "RootNode (model correction matrix)"
    },
    {
      "children": [
        3
      ],
      "name": "abb68f8c4e61477fa7c986d6336d1a38.obj.cleaner"
    },
    {
      "mesh": 0,
      "name": ""
    }
  ],
  "scene": 0,
  "scenes": [
    {
      "name": "OSG_Scene",
      "nodes": [
        0
      ]
    }
  ]
}

